<svg width="261" height="261" viewBox="0 0 261 261" fill="none" xmlns="http://www.w3.org/2000/svg">
<path d="M0 8.28122C0 3.70763 3.70763 0 8.28122 0H138.719C143.292 0 147 3.70763 147 8.28122V19H0V8.28122Z" fill="url(#paint0_linear_819_3786)"/>
<path d="M0 25.0625H147V87.7813C147 92.3549 143.292 96.0625 138.719 96.0625H8.28122C3.70763 96.0625 0 92.3549 0 87.7813V25.0625Z" fill="url(#paint1_linear_819_3786)"/>
<path d="M251.777 0.75C256.351 0.75 260.059 4.45763 260.059 9.03122V139.469C260.059 144.042 256.351 147.75 251.777 147.75H241.059L241.059 0.75L251.777 0.75Z" fill="url(#paint2_linear_819_3786)"/>
<path d="M235 0L235 147H172.281C167.708 147 164 143.292 164 138.719V8.28122C164 3.70763 167.708 0 172.281 0L235 0Z" fill="url(#paint3_linear_819_3786)"/>
<path d="M8.28122 260.084C3.70763 260.084 0 256.376 0 251.803L0 121.365C0 116.792 3.70763 113.084 8.28122 113.084H19L19 260.084H8.28122Z" fill="url(#paint4_linear_819_3786)"/>
<path d="M25.0586 260L25.0586 113H87.7774C92.351 113 96.0586 116.708 96.0586 121.281V251.719C96.0586 256.292 92.351 260 87.7774 260H25.0586Z" fill="url(#paint5_linear_819_3786)"/>
<path d="M260.105 251.777C260.105 256.351 256.398 260.059 251.824 260.059L121.387 260.059C116.813 260.059 113.105 256.351 113.105 251.777V241.059L260.105 241.059V251.777Z" fill="url(#paint6_linear_819_3786)"/>
<path d="M260 235L113 235L113 172.281C113 167.708 116.708 164 121.281 164L251.719 164C256.292 164 260 167.708 260 172.281V235Z" fill="url(#paint7_linear_819_3786)"/>
<defs>
<linearGradient id="paint0_linear_819_3786" x1="26.382" y1="-1.14106" x2="28.3881" y2="27.2421" gradientUnits="userSpaceOnUse">
<stop stop-color="#22C55E"/>
<stop offset="1" stop-color="#59F377"/>
</linearGradient>
<linearGradient id="paint1_linear_819_3786" x1="26.382" y1="20.7985" x2="52.699" y2="120.441" gradientUnits="userSpaceOnUse">
<stop stop-color="#22C55E"/>
<stop offset="1" stop-color="#59F377"/>
</linearGradient>
<linearGradient id="paint2_linear_819_3786" x1="261.2" y1="27.132" x2="232.817" y2="29.1381" gradientUnits="userSpaceOnUse">
<stop stop-color="#22C55E"/>
<stop offset="1" stop-color="#59F377"/>
</linearGradient>
<linearGradient id="paint3_linear_819_3786" x1="239.264" y1="26.382" x2="139.621" y2="52.699" gradientUnits="userSpaceOnUse">
<stop stop-color="#22C55E"/>
<stop offset="1" stop-color="#59F377"/>
</linearGradient>
<linearGradient id="paint4_linear_819_3786" x1="-1.14106" y1="233.702" x2="27.2421" y2="231.696" gradientUnits="userSpaceOnUse">
<stop stop-color="#22C55E"/>
<stop offset="1" stop-color="#59F377"/>
</linearGradient>
<linearGradient id="paint5_linear_819_3786" x1="20.7946" y1="233.618" x2="120.437" y2="207.301" gradientUnits="userSpaceOnUse">
<stop stop-color="#22C55E"/>
<stop offset="1" stop-color="#59F377"/>
</linearGradient>
<linearGradient id="paint6_linear_819_3786" x1="233.723" y1="261.2" x2="231.717" y2="232.817" gradientUnits="userSpaceOnUse">
<stop stop-color="#22C55E"/>
<stop offset="1" stop-color="#59F377"/>
</linearGradient>
<linearGradient id="paint7_linear_819_3786" x1="233.618" y1="239.264" x2="207.301" y2="139.621" gradientUnits="userSpaceOnUse">
<stop stop-color="#22C55E"/>
<stop offset="1" stop-color="#59F377"/>
</linearGradient>
</defs>
</svg>
